<svg xmlns="http://www.w3.org/2000/svg" xmlns:xlink="http://www.w3.org/1999/xlink" version="1.1" x="0px" y="0px" viewBox="0 0 100 125" enable-background="new 0 0 100 100" xml:space="preserve"><g><polygon fill-rule="evenodd" clip-rule="evenodd" points="57.359,53.339 49.967,58.933 57.359,63.482 48.45,73.624 53.379,73.624    67,61.586  "/><path fill-rule="evenodd" clip-rule="evenodd" d="M76.556,40.26l-7.401,6.582l-5.965-5.877c0.044-0.111,0.089-0.223,0.087-0.355   c-0.024-2.865,1.198-1.977,3.16-1.847c1.961,0.132,4.315-3.531,5.36-6.277c1.046-2.746,0.656-6.016-4.183-7.193   c-4.839-1.177-6.146,4.185-6.538,6.016c-0.396,1.831-1.572,2.36-1.572,2.36h-3.271c-0.054,0.111-0.076,0.209-0.125,0.318   l-10.096-9.95L36.995,39.57l3.035-0.965l5.982-6.723l4.705,4.486L18.521,76.481h4.461L61.115,46.27l8.787,8.37l10.706-15.838   L76.556,40.26z"/></g><text x="0" y="115" fill="#000000" font-size="5px" font-weight="bold" font-family="'Helvetica Neue', Helvetica, Arial-Unicode, Arial, Sans-serif">Created by Ian</text><text x="0" y="120" fill="#000000" font-size="5px" font-weight="bold" font-family="'Helvetica Neue', Helvetica, Arial-Unicode, Arial, Sans-serif">from the Noun Project</text></svg>