<svg xmlns="http://www.w3.org/2000/svg" viewBox="0 0 64 80" x="0px" y="0px"><title>charisma 1</title><g data-name="Layer 25"><path d="M32.4585,23.9502a5.65537,5.65537,0,0,1-3.00049-.85206,1.00026,1.00026,0,1,1,1.06054-1.69628,3.76591,3.76591,0,0,0,3.8794.00048.99986.99986,0,0,1,1.06055,1.69532A5.64737,5.64737,0,0,1,32.4585,23.9502ZM13.125,19.87158a2.24364,2.24364,0,0,1-2.19775-1.75244L10.29,15.33154,7.502,14.69434a2.25478,2.25478,0,0,1,0-4.396L10.29,9.66162l.63721-2.78808a2.25447,2.25447,0,0,1,4.3955,0L15.96,9.66162l2.7876.63672a2.25464,2.25464,0,0,1,0,4.396l-2.7876.6372-.63769,2.7876A2.24271,2.24271,0,0,1,13.125,19.87158ZM14.90234,13.522l3.39991-.77734a.25444.25444,0,0,0,0-.49609l-3.39991-.77686a1.00008,1.00008,0,0,1-.752-.75244l-.77783-3.40039a.254.254,0,0,0-.49512,0l-.77783,3.40039a1.00008,1.00008,0,0,1-.752.75244l-3.40039.77686a.25427.25427,0,0,0,0,.4956l3.40039.77783a.99876.99876,0,0,1,.752.752l.77734,3.3999a.2633.2633,0,0,0,.49561,0l.77783-3.3999A.99876.99876,0,0,1,14.90234,13.522ZM58.25,36.63379a2.24321,2.24321,0,0,1-1.752,2.19775L53.71,39.46875l-.63721,2.78809A2.25443,2.25443,0,0,1,48.96,42.944V59.06a1.90721,1.90721,0,0,1-1.48,1.87c-1.06.25-2.19.47-3.36.67a71.39051,71.39051,0,0,1-11.66.9,71.39166,71.39166,0,0,1-11.66-.9c-1.19-.2-2.32-.42-3.37-.67a1.915,1.915,0,0,1-1.47-1.87V53.08746l-.62457-.14264a2.25478,2.25478,0,0,1,0-4.396l.62457-.14276V36.58a4.59015,4.59015,0,0,1,3.29-4.43l8.71-2.6a1.38008,1.38008,0,0,0,1-1.33v-.9165a9.65091,9.65091,0,0,1-5.90814-6.67328c-.10089.00921-.19879.02978-.30188.02978a3.40872,3.40872,0,0,1-.82025-6.72l-.00934-.05762c-.00159-.00976-.00079-.01788-.00226-.02758a10.67639,10.67639,0,1,1,21.22-1.69458,10.3392,10.3392,0,0,1-.14062,1.69964l-.00147.023-.00634.03931A3.41072,3.41072,0,0,1,42.23,20.66a3.26113,3.26113,0,0,1-.36383-.03772A9.651,9.651,0,0,1,35.96,27.30194v.918a1.383,1.383,0,0,0,.99,1.33l8.72,2.6a4.58144,4.58144,0,0,1,2.36353,1.65033l.00653-.00146.63769-2.7876a2.254,2.254,0,0,1,4.395,0l.63721,2.7876,2.78809.63721A2.2432,2.2432,0,0,1,58.25,36.63379ZM42.22241,18.65851,42.23,18.66a1.40981,1.40981,0,0,0,.43823-2.75305Zm-19.52905-.00415-.44214-2.72974a1.40877,1.40877,0,0,0,.44214,2.72974ZM19.96,57.88428a2.23781,2.23781,0,0,1-1.19977-1.51465l-.63671-2.78809L17.96,53.54419V59.06c.63.11,1.31.24,2,.36Zm6.37348-7.1377a.25293.25293,0,0,0-.19776-.24756v-.00048l-3.3999-.77735a.99876.99876,0,0,1-.752-.752l-.77735-3.3999a.25444.25444,0,0,0-.49609,0l-.77686,3.3999a1.00006,1.00006,0,0,1-.75244.752l-3.40039.77783a.25428.25428,0,0,0,0,.49561l3.40039.77685a1.00143,1.00143,0,0,1,.7522.75184L19.96,52.53v.10962l.75043,3.28473a.2631.2631,0,0,0,.4956,0l.77784-3.40039a1.00008,1.00008,0,0,1,.752-.75245l3.3999-.77685A.25307.25307,0,0,0,26.3335,50.74658Zm6.125-24.79541A7.673,7.673,0,0,0,40.063,19.47949l.73858-4.559a14.93051,14.93051,0,0,1-1.79034-1.5133A15.1053,15.1053,0,0,1,37.2876,11.353a15.2516,15.2516,0,0,1-9.65869,0,15.0813,15.0813,0,0,1-1.72364,2.0542,14.93012,14.93012,0,0,1-1.79028,1.5133L24.85352,19.48A7.67354,7.67354,0,0,0,32.4585,25.95117ZM36.3,31.45a3.40491,3.40491,0,0,1-2.34-3.23v-.3913a9.261,9.261,0,0,1-3,.00043V28.22a3.36093,3.36093,0,0,1-2.35,3.22,10.13653,10.13653,0,0,0,3.85.72A10.298,10.298,0,0,0,36.3,31.45Zm19.95,5.18378a.25249.25249,0,0,0-.19727-.24756l-3.40039-.77783a.99876.99876,0,0,1-.752-.752l-.77734-3.39991a.25414.25414,0,0,0-.49561,0l-.77783,3.39991a.99876.99876,0,0,1-.752.752l-3.39991.77734a.25414.25414,0,0,0,0,.49561l3.39991.77783a.99876.99876,0,0,1,.752.752l.77783,3.40039a.26294.26294,0,0,0,.49512,0l.77783-3.40039a.99876.99876,0,0,1,.752-.752l3.40039-.77783A.25249.25249,0,0,0,56.25,36.63379Z"/></g><text x="0" y="79" fill="#000000" font-size="5px" font-weight="bold" font-family="'Helvetica Neue', Helvetica, Arial-Unicode, Arial, Sans-serif">Created by agus raharjo</text><text x="0" y="84" fill="#000000" font-size="5px" font-weight="bold" font-family="'Helvetica Neue', Helvetica, Arial-Unicode, Arial, Sans-serif">from the Noun Project</text></svg>