<svg width="1501" height="258" viewBox="0 0 1501 258" fill="none" xmlns="http://www.w3.org/2000/svg">
<g clip-path="url(#clip0_7075_90913)">
<path d="M162.142 9.12274V101.001L85.1466 198.093C84.3597 199.083 83.3598 199.882 82.2213 200.432C81.0828 200.981 79.8351 201.267 78.571 201.267H8.40331C6.17462 201.267 4.0372 200.381 2.46127 198.804C0.885347 197.228 0 195.089 0 192.859V162.023C0.00265705 160.102 0.662493 158.24 1.86974 156.747L76.8483 64.0271C78.0416 62.5358 78.6918 60.6824 78.6918 58.7721C78.6918 56.8617 78.0416 55.0083 76.8483 53.5171L45.7771 14.3567C44.793 13.1189 44.1779 11.6284 44.0023 10.0565C43.8268 8.48455 44.0979 6.89496 44.7846 5.4703C45.4713 4.04563 46.5457 2.84366 47.8844 2.00245C49.2231 1.16124 50.7718 0.714911 52.3526 0.714722H153.739C155.967 0.714722 158.105 1.60056 159.681 3.17737C161.257 4.75418 162.142 6.89279 162.142 9.12274Z" fill="#7500EB"/>
<path d="M322.456 45.2561L247.477 137.997C246.284 139.488 245.634 141.341 245.634 143.252C245.634 145.162 246.284 147.015 247.477 148.507L278.57 187.625C279.554 188.863 280.169 190.353 280.344 191.925C280.52 193.497 280.249 195.087 279.562 196.511C278.875 197.936 277.801 199.138 276.462 199.979C275.123 200.82 273.575 201.267 271.994 201.267H170.545C168.316 201.267 166.179 200.381 164.603 198.804C163.027 197.227 162.142 195.089 162.142 192.859V101.001L239.2 3.88865C239.989 2.89604 240.992 2.0949 242.135 1.54523C243.277 0.995565 244.529 0.711607 245.797 0.714623H315.943C318.172 0.714623 320.309 1.60047 321.885 3.17727C323.461 4.75408 324.347 6.8927 324.347 9.12264V39.938C324.348 41.8757 323.68 43.7544 322.456 45.2561Z" fill="#7500EB"/>
<path d="M439.577 4.20401V162.737H507.665C509.894 162.737 512.031 163.623 513.607 165.2C515.183 166.777 516.068 168.915 516.068 171.145V192.165C516.068 194.395 515.183 196.534 513.607 198.111C512.031 199.687 509.894 200.573 507.665 200.573H400.061V4.20401C400.061 3.08904 400.503 2.01973 401.291 1.23133C402.079 0.442921 403.148 0 404.262 0L435.376 0C436.49 0 437.559 0.442921 438.347 1.23133C439.134 2.01973 439.577 3.08904 439.577 4.20401Z" fill="#7500EB"/>
<path d="M655.774 182.874C641.264 197.406 623.323 204.665 601.95 204.651C580.578 204.637 562.63 197.378 548.106 182.874C533.596 168.371 526.342 150.419 526.342 129.021C526.174 118.962 528.01 108.971 531.741 99.629C535.472 90.2872 541.025 81.7821 548.075 74.6095C555.126 67.4369 563.532 61.7403 572.805 57.8517C582.078 53.9632 592.032 51.9606 602.087 51.9606C612.142 51.9606 622.095 53.9632 631.369 57.8517C640.642 61.7403 649.048 67.4369 656.099 74.6095C663.149 81.7821 668.701 90.2872 672.433 99.629C676.164 108.971 678 118.962 677.832 129.021C678.029 139.029 676.173 148.972 672.379 158.234C668.585 167.497 662.934 175.883 655.774 182.874ZM574.156 157.293C581.628 164.468 591.584 168.474 601.94 168.474C612.296 168.474 622.251 164.468 629.723 157.293C633.417 153.578 636.312 149.145 638.231 144.269C640.149 139.392 641.05 134.175 640.879 128.937C641.051 123.696 640.15 118.475 638.231 113.595C636.313 108.715 633.418 104.279 629.723 100.56C622.246 93.3948 612.293 89.3951 601.94 89.3951C591.587 89.3951 581.633 93.3948 574.156 100.56C570.568 104.342 567.76 108.796 565.893 113.665C564.025 118.534 563.136 123.724 563.274 128.937C563.134 134.147 564.023 139.334 565.89 144.2C567.758 149.066 570.567 153.516 574.156 157.293Z" fill="#7500EB"/>
<path d="M757.432 157.65L791.382 60.1173C791.67 59.2936 792.206 58.5798 792.918 58.0751C793.629 57.5704 794.48 57.2997 795.352 57.3006H826.865C827.558 57.286 828.245 57.4434 828.863 57.7588C829.48 58.0742 830.011 58.5378 830.406 59.1081C830.801 59.6785 831.049 60.3379 831.128 61.0274C831.206 61.717 831.113 62.4154 830.856 63.0601L779.659 197.841C779.356 198.638 778.819 199.324 778.117 199.809C777.415 200.293 776.583 200.552 775.731 200.552H739.491C738.639 200.552 737.807 200.293 737.105 199.809C736.403 199.324 735.865 198.638 735.563 197.841L684.281 63.0601C684.04 62.4236 683.956 61.738 684.038 61.0621C684.12 60.3863 684.365 59.7404 684.751 59.18C685.138 58.6197 685.654 58.1616 686.257 57.8452C686.859 57.5288 687.53 57.3636 688.21 57.3637H719.722C720.597 57.3643 721.45 57.638 722.162 58.1467C722.873 58.6554 723.409 59.3737 723.693 60.2014L757.432 157.65Z" fill="#7500EB"/>
<path d="M980.583 144.113H876.276C881.038 162.064 894.498 171.04 916.654 171.04C929.427 171.04 939.399 167.123 946.57 159.29C947.213 158.584 948.078 158.118 949.021 157.968C949.964 157.819 950.93 157.996 951.759 158.47L974.406 171.566C974.941 171.862 975.405 172.273 975.765 172.768C976.125 173.262 976.372 173.83 976.49 174.43C976.608 175.031 976.594 175.65 976.448 176.244C976.302 176.839 976.028 177.394 975.646 177.872C961.64 195.739 941.78 204.665 916.066 204.651C892.383 204.651 873.391 197.49 859.092 183.169C844.792 168.847 837.635 150.77 837.621 128.937C837.621 107.538 844.68 89.5804 858.797 75.0625C872.915 60.5447 891.052 53.2858 913.209 53.2858C934.399 53.2858 951.675 60.5447 965.036 75.0625C978.776 89.5804 985.646 107.538 985.646 128.937C985.596 132.791 985.301 136.639 984.763 140.456C984.63 141.47 984.132 142.401 983.363 143.074C982.593 143.747 981.605 144.117 980.583 144.113ZM875.688 115.463H948.713C947.303 107.154 942.927 99.6394 936.397 94.3157C929.867 88.9921 921.627 86.2214 913.209 86.5185C904.396 86.1888 895.734 88.8727 888.65 94.1277C881.94 99.4786 877.346 107.039 875.688 115.463Z" fill="#7500EB"/>
<path d="M1094.76 53.2858C1114.02 53.2858 1130.43 60.6428 1144.01 75.3568C1157.64 89.8148 1165.05 109.062 1164.62 128.937C1164.62 150.335 1157.75 168.286 1144.01 182.79C1137.86 189.764 1130.27 195.322 1121.77 199.081C1113.27 202.841 1104.06 204.712 1094.76 204.567C1074.69 204.567 1059.22 197.595 1048.36 183.652V253.67C1048.36 254.785 1047.91 255.854 1047.12 256.643C1046.34 257.431 1045.27 257.874 1044.15 257.874H1015.62C1014.51 257.874 1013.44 257.431 1012.65 256.643C1011.87 255.854 1011.42 254.785 1011.42 253.67V61.5046C1011.42 60.3896 1011.87 59.3203 1012.65 58.5319C1013.44 57.7435 1014.51 57.3006 1015.62 57.3006H1044.11C1045.23 57.3006 1046.29 57.7435 1047.08 58.5319C1047.87 59.3203 1048.31 60.3896 1048.31 61.5046V74.1166C1059.22 60.2434 1074.71 53.2998 1094.76 53.2858ZM1059.53 158.155C1067.23 165.345 1077.36 169.344 1087.89 169.344C1098.42 169.344 1108.56 165.345 1116.25 158.155C1120.05 154.322 1123.03 149.753 1125 144.729C1126.96 139.705 1127.89 134.331 1127.7 128.937C1127.7 117.082 1123.89 107.433 1116.25 99.9923C1108.64 92.6358 1098.48 88.5239 1087.89 88.5239C1077.31 88.5239 1067.14 92.6358 1059.53 99.9923C1052.05 107.433 1048.31 117.082 1048.31 128.937C1048.13 134.311 1049.03 139.666 1050.96 144.685C1052.89 149.704 1055.8 154.284 1059.53 158.155Z" fill="#7500EB"/>
<path d="M1299.49 74.2007V61.5887C1299.49 60.4737 1299.93 59.4044 1300.72 58.616C1301.51 57.8276 1302.58 57.3847 1303.69 57.3847H1332.24C1333.35 57.3847 1334.42 57.8276 1335.21 58.616C1336 59.4044 1336.44 60.4737 1336.44 61.5887V196.348C1336.44 197.463 1336 198.532 1335.21 199.321C1334.42 200.109 1333.35 200.552 1332.24 200.552H1303.69C1302.58 200.552 1301.51 200.109 1300.72 199.321C1299.93 198.532 1299.49 197.463 1299.49 196.348V183.736C1288.42 197.75 1272.87 204.721 1252.83 204.651C1233.73 204.651 1217.3 197.392 1203.56 182.874C1189.83 168.356 1183.05 150.405 1183.23 129.021C1182.78 109.194 1190.08 89.9724 1203.56 75.4409C1217.3 60.7269 1233.73 53.3698 1252.83 53.3698C1272.87 53.3138 1288.42 60.2574 1299.49 74.2007ZM1231.34 158.155C1239.03 165.345 1249.17 169.344 1259.7 169.344C1270.23 169.344 1280.36 165.345 1288.06 158.155C1291.86 154.322 1294.83 149.753 1296.8 144.729C1298.77 139.705 1299.69 134.331 1299.51 128.937C1299.51 117.082 1295.69 107.433 1288.06 99.9923C1280.45 92.6358 1270.28 88.5239 1259.7 88.5239C1249.12 88.5239 1238.95 92.6358 1231.34 99.9923C1223.9 107.433 1220.18 117.082 1220.18 128.937C1219.99 134.306 1220.88 139.659 1222.8 144.678C1224.71 149.697 1227.62 154.28 1231.34 158.155Z" fill="#7500EB"/>
<path d="M1431.5 153.572L1462.32 60.1804C1462.6 59.3414 1463.14 58.6116 1463.85 58.0946C1464.57 57.5777 1465.43 57.2998 1466.31 57.3006H1496.8C1497.47 57.3009 1498.14 57.4637 1498.74 57.7752C1499.33 58.0867 1499.85 58.5378 1500.24 59.0904C1500.62 59.6429 1500.87 60.2806 1500.96 60.9496C1501.05 61.6187 1500.98 62.2993 1500.75 62.934L1450.68 200.552C1443.25 221.194 1433.37 236.146 1421.04 245.409C1409.7 253.943 1395.78 258.147 1379.3 258.021C1378.18 258.021 1377.12 257.578 1376.33 256.79C1375.54 256.001 1375.1 254.932 1375.1 253.817V227.605C1375.1 226.519 1375.52 225.474 1376.27 224.69C1377.02 223.906 1378.05 223.444 1379.13 223.401C1386.09 223.29 1392.86 221.093 1398.56 217.095C1404.17 212.891 1408.65 206.347 1412.03 197.462C1412.43 196.463 1412.43 195.35 1412.03 194.351L1356.38 63.0601C1356.11 62.4212 1356 61.7252 1356.06 61.0342C1356.13 60.3433 1356.36 59.6789 1356.74 59.1002C1357.13 58.5216 1357.65 58.0468 1358.26 57.7181C1358.87 57.3894 1359.55 57.2171 1360.24 57.2166H1391.4C1392.25 57.2191 1393.07 57.4773 1393.77 57.9574C1394.47 58.4374 1395 59.117 1395.31 59.9071L1431.5 153.572Z" fill="#7500EB"/>
</g>
<defs>
<clipPath id="clip0_7075_90913">
<rect width="1501" height="258" fill="white"/>
</clipPath>
</defs>
</svg>
